# xmcd
#
# Track frame offsets:
#	150
#	13442
#	26345
#	38829
#	52325
#	66933
#	78785
#	88721
#	101827
#	115225
#	128393
#	141887
#	156242
#	170406
#	183076
#	196539
#	211046
#	224973
#	238187
#	250109
#
# Disc length: 3524 seconds
#
# Revision: 1
# Processed by: cddbd v1.5.2PL0 Copyright (c) Steve Scherf et al.
# Submitted via: audiograbber 1.83.01
#
DISCID=180dc214
DTITLE=Various Artist - Country and Western Original Masters - CD 2
DYEAR=2005
DGENRE=Country
TTITLE0=Jimmie Rodgers - Train Whistle Blues (1929)
TTITLE1=Nelstone's Hawaiians - Mobile County Blues (1929)
TTITLE2=G. Wade and F. Braswell - Think  A Little (1929)
TTITLE3=Carter and Young - A Lazy Farmer Boy (1929)
TTITLE4=Clarence Ashley - The House Carpenter (1930)
TTITLE5=Jackson County Barn Owls - Bake That Chicken Pie (1930)
TTITLE6=Cliff Carlisle - Pan American Man (1930)
TTITLE7=The Carter Family - John Hardy (1930)
TTITLE8=Jimmie Rodgers - Blue Yodel No 8 (1930)
TTITLE9=Jackson County Barn Owls - I Wonder How (1930)
TTITLE10=Dave and Howard - Serves' Em Fine (1931)
TTITLE11=Jimmie Davis - Rockin' Blues (1932)
TTITLE12=Jimmie Rodgers - No Hard Times (19332)
TTITLE13=Kentucky Ramblers - Ginseng Blues (1932)
TTITLE14=Ernest Phipps - If The Light Was Gone (1932)
TTITLE15=Tex Ritter - Rye Whiskey (1933)
TTITLE16=Fort Worth Dough Boys - Sunbonnet Sue (1933)
TTITLE17=Jimmie Rodgers - Somewhere Down Below (1933)
TTITLE18=The Delmore Brothers - Browns's Fery Blues (1934)
TTITLE19=Kokomo Arnold - The Twelve's (1934)
EXTD=
EXTT0=
EXTT1=
EXTT2=
EXTT3=
EXTT4=
EXTT5=
EXTT6=
EXTT7=
EXTT8=
EXTT9=
EXTT10=
EXTT11=
EXTT12=
EXTT13=
EXTT14=
EXTT15=
EXTT16=
EXTT17=
EXTT18=
EXTT19=
PLAYORDER=
